<mxfile host="app.diagrams.net" modified="2022-02-07T03:22:22.824Z" agent="5.0 (Windows NT 10.0; Win64; x64) AppleWebKit/537.36 (KHTML, like Gecko) Chrome/98.0.4758.81 Safari/537.36" etag="Dx2oDl293ftUC2M7Zm_7" version="16.5.3" type="github">
  <diagram id="8lUbHzFonI6o5c41qjD1" name="Page-1">
    <mxGraphModel dx="1038" dy="547" grid="1" gridSize="10" guides="1" tooltips="1" connect="1" arrows="1" fold="1" page="1" pageScale="1" pageWidth="827" pageHeight="1169" math="0" shadow="0">
      <root>
        <mxCell id="0" />
        <mxCell id="1" parent="0" />
        <mxCell id="e19GsZi6UiWKEImQJo2d-1" value="" style="dashed=0;outlineConnect=0;html=1;align=center;labelPosition=center;verticalLabelPosition=bottom;verticalAlign=top;shape=mxgraph.webicons.facebook;fillColor=#6294E4;gradientColor=#1A2665" vertex="1" parent="1">
          <mxGeometry x="300" y="150" width="102.4" height="102.4" as="geometry" />
        </mxCell>
        <mxCell id="e19GsZi6UiWKEImQJo2d-2" value="" style="dashed=0;outlineConnect=0;html=1;align=center;labelPosition=center;verticalLabelPosition=bottom;verticalAlign=top;shape=mxgraph.webicons.google;gradientColor=#DFDEDE" vertex="1" parent="1">
          <mxGeometry x="570" y="150" width="102.4" height="102.4" as="geometry" />
        </mxCell>
        <mxCell id="e19GsZi6UiWKEImQJo2d-8" value="" style="endArrow=classic;html=1;rounded=0;" edge="1" parent="1" target="e19GsZi6UiWKEImQJo2d-2">
          <mxGeometry relative="1" as="geometry">
            <mxPoint x="402.4" y="200.7" as="sourcePoint" />
            <mxPoint x="502.4" y="200.7" as="targetPoint" />
          </mxGeometry>
        </mxCell>
        <mxCell id="e19GsZi6UiWKEImQJo2d-9" value="Label" style="edgeLabel;resizable=0;html=1;align=center;verticalAlign=middle;" connectable="0" vertex="1" parent="e19GsZi6UiWKEImQJo2d-8">
          <mxGeometry relative="1" as="geometry" />
        </mxCell>
      </root>
    </mxGraphModel>
  </diagram>
</mxfile>
